<svg xmlns="http://www.w3.org/2000/svg" viewBox="0 0 360 360"><defs><style>.cls-1{fill:#fcc0c0;}.cls-2{fill:#efa5a5;}.cls-3{fill:#e08585;}.cls-4{fill:#bf6464;}</style></defs><title>birdhouse</title><g id="Layer_2" data-name="Layer 2"><path class="cls-1" d="M193.94,185.91l70.43-82.45,57.52,62.15L309.63,290.5,198.53,318.08Z"/><path class="cls-2" d="M264.36,103.46l-16.73-1.2-69.21,78.48,15.51,5.17Z"/><polygon class="cls-3" points="198.53 318.08 183.98 308.5 178.42 180.74 193.94 185.91 198.53 318.08"/><path class="cls-4" d="M281.24,211.19c-.06,2.71-.29,8.69-4.63,14-1.26,1.55-4.71,5.8-10.73,6.74-.42.07-6.69,1-11.77-2.8-8.29-6.16-9-21.32-2.66-30.54,1-1.4,5.75-8.41,13.53-8.61a15.1,15.1,0,0,1,9.43,3.28C281.54,198.77,281.3,208.47,281.24,211.19Z"/><path class="cls-3" d="M281.24,211.19c-.07,2.52-.34,8.93-5.08,14.46-1.42,1.66-4.65,5.42-10.28,6.33a16.54,16.54,0,0,1-11.77-2.8c2.19-.38,10.54-2.09,16.17-9.63,5.75-7.7,6.4-18.45,1.78-27.74a18.12,18.12,0,0,1,3,2.31C281.53,200.33,281.28,209.54,281.24,211.19Z"/><path class="cls-2" d="M264.85,253.91a6.45,6.45,0,0,0-3.09,11.9l25,8.73a7,7,0,0,1-.3-6.25,6.68,6.68,0,0,1,6.67-3.55Z"/><path class="cls-3" d="M292.83,273c-1.44,1.64-4.18,2.81-5.78,1.76-1.93-1.27-1.69-5.43.2-7.84,1.42-1.81,4.2-3.17,5.82-2.18C295.07,265.93,295,270.48,292.83,273Z"/></g></svg>