<svg id="Layer_2" data-name="Layer 2" xmlns="http://www.w3.org/2000/svg" viewBox="0 0 360 360"><defs><style>.cls-1{fill:#8997cc;}.cls-2{fill:#a0acd8;}.cls-3{fill:#bfcaef;}.cls-4{fill:#dfe3f2;}</style></defs><title>smoke</title><path class="cls-1" d="M184,100.85c16.67,1.53,20.48,3.91,20.79,5.83.77,4.75-19.75,7.53-34.69,23.14a52,52,0,0,0-9.56,13.89A58.68,58.68,0,0,1,179,130.24,138.39,138.39,0,0,1,202,122c5.29-1.27,10.28-2,13.26-5.73,1.56-1.93,2.68-4.78,2-7C215.65,103.62,202.19,100,184,100.85Z"/><path class="cls-2" d="M184,100.85c25.21,3.35,31.88,6.87,32,9.81.14,3.14-7.12,6.47-15.83,10.47a105.63,105.63,0,0,1-15.44,5.68c16.64.52,27.17-4.17,32.55-7.27,8.59-4.94,8.91-8.6,8.92-9.6.07-4.48-5.17-7.83-6.52-8.67-4.52-2.83-9.44-2.89-16.29-2.89A77.77,77.77,0,0,0,184,100.85Z"/><path class="cls-1" d="M150.65,63.25c-.46,1.1-1.2,2.84-2.2,4.94-4.59,9.68-7.62,12.4-6.77,15.74.15.59.84,2.87,6.77,5.67,9.19,4.35,16.79,3.23,32.67,3.61,3.32.08,8.4.26,14.67.72a131.57,131.57,0,0,1-15.63,3.86,131.81,131.81,0,0,1-22.45,2.09c-13,.29-16.32-1.15-17.78-1.89-1.65-.83-8.84-4.44-9.33-10.31-.14-1.74.28-4.23,9.14-13.71C144,69.39,147.84,65.78,150.65,63.25Z"/><path class="cls-2" d="M199.91,202.67c-5.6-4.29-5.78-7.35-5.52-8.83.61-3.38,4.72-5,14.26-10.06,6.66-3.52,11.89-6.56,15.16-8.5q-42,9.43-41.67,17.55Q182.37,198,199.91,202.67Z"/><path class="cls-2" d="M232.49,168.85c2.93-3.11,6.7-8.08,5.06-12.71-3.22-9.07-24.12-8-25.55-14.41-2-8.82,36.63-17,37.58-33.81A18,18,0,0,0,247,97.65c-4.46-6.59-13.14-8.13-12.48-11.58.46-2.4,4.82-2.82,5.6-6.52a6.12,6.12,0,0,0-.67-4.06c-1.87-3.34-6-3.25-6.88-5.73-.36-1-.27-2.55,2-5-2.62,2.42-5.06,5.42-4,7.76s5,2.28,5.57,4.32c.88,3-7.16,4.79-7.76,9-.83,5.82,13.82,8.44,14.82,17.26.32,2.8-.88,5-2.21,7.36-3.46,6.25-9.63,9.61-15.31,12.51-22.16,11.32-34.75,14.62-34.19,19.4.11,1,.7,1.61,1.78,2.77,3.69,4,9.52,4.2,15.76,5.36,4.89.91,19.42,3.6,23.09,10.9A9.91,9.91,0,0,1,232.49,168.85Z"/><path class="cls-3" d="M184,100.85c21.4-2.53,37.54-.21,40,5.81,1.35,3.33-1.64,7.34-2,7.82-4.32,5.65-12.87,6.42-20.33,7.82-18.16,3.41-40.46,12.57-41.13,21.41-.27,3.64,3.19,6.51,6,8.84,13.68,11.33,36.2,5.86,43.47,15.54.88,1.17.89,1.7.89,1.9-.12,5.67-25.13,5.87-29.22,15.58a9.09,9.09,0,0,0,.47,7.26,15.11,15.11,0,0,1,4.11-7.72c6.06-6.06,14.34-4,25.41-9.48,1.33-.65,14.08-6.92,12.94-12.43-.66-3.19-5.59-4.29-22.64-10-21.6-7.23-24.41-9.06-24.49-11-.11-2.87,5.93-5.2,18-9.74,17.58-6.6,25-7.07,33-14,2.2-1.89,6.82-6.25,5.85-10.38-.5-2.12-2.33-3.55-4.95-5-7.25-4-15.73-5.27-26-4.89A99.75,99.75,0,0,0,184,100.85Z"/><path class="cls-4" d="M154.42,57.37a96.28,96.28,0,0,1-16.95,12.29c-4.54,2.57-10.31,5.31-14.64,11.71-1.39,2.06-2.25,3.35-2.33,5.11-.4,8.12,16.16,15,18.28,15.88,33.1,13.25,75.75-8,90.2,1.07,1,.64,3.91,2.36,4.26,5.23.59,4.82-6,9.9-8.85,11.94-9.33,6.61-16,5.63-31.57,12.14-9.81,4.1-15.85,6.38-15.78,9.55.08,3.76,8.61,6.68,22,11.14,16.12,5.37,23.87,6,24.63,9.75.65,3.17-4.19,6.33-7.89,8.76-3,2-6.45,3.55-24.63,10.15a14.92,14.92,0,0,0-6.34,3.89,10.83,10.83,0,0,0-2.68,6.85A38.06,38.06,0,0,1,193,186c3.74-1.55,5.76-1.7,12-3.57a107.83,107.83,0,0,0,12.43-4.3c6-2.61,16.83-7.33,17-14.05.07-3.85-3.34-6.81-4.52-7.84-4.27-3.7-8.65-3.6-19.37-6.37s-16.31-4.21-16.74-6.77c-.46-2.77,5.4-5.46,17-10.94s18.21-7,25.59-13.53c3.64-3.24,5-5.55,5.5-8,1.14-5.78-3.54-10.9-4.44-11.84l-.1-.1c-7.2-7.34-28.28-6.45-28.28-6.45-7.06.3-12.21,1-15.64,1.44-36.07,4.73-48,3.87-55.81-1.68-4-2.82-4.48-5.17-4.57-6.25-.33-4.16,4.32-7.1,9.14-11.79A65.33,65.33,0,0,0,154.42,57.37Z"/></svg>