<svg xmlns="http://www.w3.org/2000/svg" viewBox="0 0 360 360"><defs><style>.cls-1{fill:#fcc0c0;}.cls-2{fill:#efa5a5;}.cls-3{fill:#e08585;}.cls-4{fill:#bf6464;}</style></defs><title>house</title><g id="Layer_2" data-name="Layer 2"><path class="cls-1" d="M191.13,186.2l56.07-65.65L293,170l-9.76,99.43-88.45,22Z"/><path class="cls-2" d="M247.2,120.55l-13.32-1-55.1,62.48,12.35,4.12Z"/><polygon class="cls-3" points="194.79 291.43 183.2 283.8 178.77 182.08 191.13 186.2 194.79 291.43"/><path class="cls-4" d="M260.63,206.32a17.77,17.77,0,0,1-3.69,11.18,13.8,13.8,0,0,1-8.54,5.37,13.46,13.46,0,0,1-9.37-2.23c-6.6-4.91-7.14-17-2.12-24.32.76-1.11,4.58-6.7,10.77-6.85a12,12,0,0,1,7.51,2.61C260.87,196.43,260.68,204.16,260.63,206.32Z"/><path class="cls-3" d="M260.63,206.32a18,18,0,0,1-4,11.51,13.5,13.5,0,0,1-8.18,5,13.17,13.17,0,0,1-9.37-2.23A20.67,20.67,0,0,0,251.91,213c4.58-6.13,5.1-14.69,1.42-22.08a14.43,14.43,0,0,1,2.37,1.84C260.87,197.68,260.67,205,260.63,206.32Z"/><path class="cls-2" d="M247.59,240.34a5.13,5.13,0,0,0-2.46,9.47l19.93,6.95a5.54,5.54,0,0,1-.24-5,5.32,5.32,0,0,1,5.31-2.83Z"/><path class="cls-3" d="M269.87,255.52c-1.15,1.31-3.32,2.24-4.6,1.4-1.54-1-1.35-4.33.16-6.24,1.13-1.44,3.34-2.52,4.64-1.73C271.65,249.91,271.61,253.53,269.87,255.52Z"/></g></svg>