<svg id="Layer_1" data-name="Layer 1" xmlns="http://www.w3.org/2000/svg" viewBox="0 0 406.77 316.47"><defs><style>.cls-1{fill:#c6c6c6;}.cls-2{fill:#383838;}.cls-3{fill:#f4f4f4;}</style></defs><title>computer</title><path class="cls-1" d="M255.24,309.49H151.55a70.5,70.5,0,0,0,0-43.66H255.24a78.58,78.58,0,0,0,0,43.66Z"/><rect class="cls-2" width="406.75" height="276.51" rx="9.88" ry="9.88"/><rect class="cls-3" x="15.87" y="16.38" width="375.06" height="199.59"/><path class="cls-1" d="M396.9,276.51H9.9a10,10,0,0,1-7.47-3.2A9.81,9.81,0,0,1,0,266.63q0-16.84,0-33.68l406.75-1.09v34.77a10.48,10.48,0,0,1-2.89,7,10.16,10.16,0,0,1-4,2.45A9.88,9.88,0,0,1,396.9,276.51Z"/><circle class="cls-2" cx="203.4" cy="254.18" r="11.65"/><rect class="cls-1" x="116.26" y="307.59" width="174.24" height="8.88"/></svg>