<svg xmlns="http://www.w3.org/2000/svg" viewBox="0 0 363.19 279.39"><defs><style>.cls-1{fill:#474747;}.cls-2{fill:#f4b3c7;}.cls-3{fill:#efd5df;}.cls-4{fill:#f4f4f4;}.cls-5,.cls-7{fill:none;stroke-miterlimit:10;}.cls-5{stroke:#f4b3c7;stroke-width:0.99px;}.cls-6{fill:#fff;}.cls-7{stroke:#a8a8a8;stroke-width:2.07px;}</style></defs><title>laptop</title><g id="Layer_2" data-name="Layer 2"><rect class="cls-1" x="104.53" y="103.39" width="156.35" height="102.02" rx="3.66" ry="3.66"/><path class="cls-2" d="M256.86,205.41H106.54a6.24,6.24,0,0,0-5,4.1L78.78,259a4,4,0,0,0,4,4H282.61a4,4,0,0,0,4-4l-24.69-49.58a6.68,6.68,0,0,0-5.08-4Z"/><polygon class="cls-1" points="266.98 235.96 98.46 235.96 109.67 209.7 255.74 209.7 266.98 235.96"/><polygon class="cls-3" points="207.39 257.47 156.89 257.47 159.67 240.24 204.32 240.24 207.39 257.47"/><rect class="cls-4" x="109.9" y="111.19" width="145.65" height="85.95"/><line class="cls-5" x1="119.31" y1="208.35" x2="110.55" y2="236.68"/><path class="cls-5" d="M130.09,208.66,122.61,237"/><line class="cls-5" x1="141.05" y1="208.31" x2="135.29" y2="237.39"/><line class="cls-5" x1="152.74" y1="207.99" x2="148.76" y2="237.58"/><line class="cls-5" x1="166.02" y1="207.61" x2="162.79" y2="237.2"/><line class="cls-5" x1="176.83" y1="208.18" x2="175.31" y2="237.39"/><line class="cls-5" x1="245.78" y1="208.27" x2="254.55" y2="236.6"/><path class="cls-5" d="M235,208.58l7.48,28.32"/><line class="cls-5" x1="224.04" y1="208.23" x2="229.81" y2="237.31"/><line class="cls-5" x1="212.36" y1="207.91" x2="216.34" y2="237.5"/><line class="cls-5" x1="199.08" y1="207.53" x2="202.3" y2="237.12"/><line class="cls-5" x1="188.27" y1="208.1" x2="189.78" y2="237.31"/><line class="cls-5" x1="104.53" y1="214.69" x2="260.88" y2="214.69"/><line class="cls-5" x1="100.04" y1="222.02" x2="264.14" y2="222.02"/><line class="cls-5" x1="98.46" y1="229.05" x2="264.14" y2="229.05"/><path class="cls-2" d="M252.32,39.15v28.6h29.33V39.15Zm1.22,1.22h26.89V66.52H253.54Z"/><path class="cls-2" d="M273.62,51.16a1.68,1.68,0,0,0-.71-.12c-1.54,0-2.57,1.19-2.57,3.15,0,2.25,1.05,3.15,2.42,3.15a2.31,2.31,0,0,0,.84-.13v-6Zm-5.48,3.13A4.73,4.73,0,0,1,273,49.22a5.42,5.42,0,0,1,.64,0V46.06a.12.12,0,0,1,.12-.12h2c.1,0,.12,0,.12.1V57.21a8.71,8.71,0,0,0,.06,1.2c0,.09,0,.1-.07.13a7.28,7.28,0,0,1-3.13.71c-2.65,0-4.55-1.64-4.55-5Zm-4.17-2,3.42,6.64c.06.1,0,.2-.07.2H265.2a.24.24,0,0,1-.26-.16q-1.17-2.42-2.4-5h0c-.73,1.64-1.54,3.42-2.32,5a.23.23,0,0,1-.22.13h-2c-.12,0-.13-.1-.07-.17l3.35-6.44L258,46.11a.11.11,0,0,1,.09-.18h2.1c.12,0,.18,0,.22.13.77,1.63,1.55,3.23,2.29,4.86h0c.71-1.61,1.49-3.24,2.24-4.84.06-.1.1-.16.22-.16h2c.1,0,.13.07.07.18L264,52.31Z"/><path class="cls-2" d="M55.43,213.22c-.38-.13-.94-.25-1.26-.38s-.82-.19-2.2-.13a14.15,14.15,0,0,1-3-.13,13.27,13.27,0,0,1-10.49-9.54,12,12,0,0,1-.31-3.7c0-2.45-.06-2.64-.38-3.64A7.58,7.58,0,0,1,45,185.53a8,8,0,0,1,3.14.69c.5.25.82.31,2.76.31a10.84,10.84,0,0,1,3.33.31A13.26,13.26,0,0,1,63.09,194a12.69,12.69,0,0,1,1.19,7,3.73,3.73,0,0,0,.19,2.32,7.7,7.7,0,0,1-2.39,8.35,10.15,10.15,0,0,1-3.2,1.57,8.8,8.8,0,0,1-3.39-.06h-.06Zm-1.7-4.83a6.54,6.54,0,0,0,4.58-3.2,4.83,4.83,0,0,0-.57-5.27c-1-1.13-2.51-1.76-6.09-2.64-2.39-.57-3-.82-3.45-1.38a1,1,0,0,1-.13-1.44,3.1,3.1,0,0,1,2.57-1.07c1.82-.13,2.64.31,3.7,2,.82,1.26,1.63,1.57,2.7,1.07,1.38-.69,1.26-3-.25-4.27s-3-1.7-5.65-1.7-4.65.57-5.9,1.82a3.51,3.51,0,0,0-1.19,3.14c0,1.63.19,2.13,1.26,3.08s2.07,1.44,5.46,2.26c2.39.57,3,.88,3.58,1.51a1.53,1.53,0,0,1,.38,1.13,1.33,1.33,0,0,1-.57,1.26,4.26,4.26,0,0,1-3.33,1c-1.7-.13-2.45-.63-3.33-2.39-.63-1.19-1.13-1.63-1.95-1.63-1.82,0-2.45,1.51-1.51,3.45a6.23,6.23,0,0,0,4.52,3.27,18.1,18.1,0,0,0,5.21,0h-.06Z"/><path class="cls-2" d="M99.74,38.08a14.6,14.6,0,0,1,12.85,8.07H99s-2.56-.08-4.75,3a6.22,6.22,0,0,0-.81,2.25,6.11,6.11,0,0,0-.06,1.21l-4.9-9a13.86,13.86,0,0,1,2.15-2.21,15.38,15.38,0,0,1,9.08-3.3Z"/><path class="cls-2" d="M112.16,59.51a14.59,14.59,0,0,1-13.41,7.1l6.79-11.75s1.35-2.18-.24-5.62a6.32,6.32,0,0,0-1.53-1.82,6.12,6.12,0,0,0-.62-.44l9.83-.05a13.89,13.89,0,0,1,.88,3.07A15.36,15.36,0,0,1,112.16,59.51Z"/><path class="cls-2" d="M87.38,59.57a14.59,14.59,0,0,1,.56-15.16l6.78,11.75s1.21,2.26,5,2.6a6.27,6.27,0,0,0,2.34-.42,6.12,6.12,0,0,0,.92-.45l-5,8.68a13.9,13.9,0,0,1-3.15-.78,15.35,15.35,0,0,1-7.4-6.22Z"/><path class="cls-2" d="M94.41,52.47a5.29,5.29,0,1,1,5.29,5.29A5.29,5.29,0,0,1,94.41,52.47Z"/><path class="cls-2" d="M170.52,29.84H198.1V56.67H170.52Zm-1.25,28.08h30.08V28.59H169.26ZM189,39c0-.1,0-.15.15-.15h2c.1,0,.15,0,.15.15v9.89c0,.1,0,.15-.15.15h-1.94c-.13,0-.16-.06-.16-.16V39h0Zm-.14-2.85a1.28,1.28,0,0,1,2.56,0,1.2,1.2,0,0,1-1.3,1.28A1.18,1.18,0,0,1,188.83,36.2Zm-5.64,7c-.35-1.39-1.18-4.42-1.49-5.89h0c-.26,1.47-.93,3.95-1.45,5.89Zm-3.48,2-1,3.76c0,.1-.06.13-.19.13h-1.84c-.13,0-.15,0-.13-.19l3.56-12.46a4.06,4.06,0,0,0,.13-1c0-.09,0-.13.1-.13H183c.09,0,.13,0,.15.13l4,13.53c0,.1,0,.16-.1.16h-2.08c-.1,0-.16,0-.19-.11l-1-3.77h-4Z"/><circle class="cls-2" cx="46.11" cy="119.01" r="14.48"/><path class="cls-6" d="M43,117l-.45.72q-.23-.64-.42-1.29.63-.09,1.35-.14L43,117Zm11.68.85a6.61,6.61,0,0,0-2-1.22,19.45,19.45,0,0,0-6.38-1.31l-.85,0c1.85-2.21,3.63-3.38,4.67-3.42a.93.93,0,0,1,.55.13c.49.32.62,1.3.36,2.62a.48.48,0,0,0,.95.19c.45-2.28-.18-3.23-.78-3.62a1.87,1.87,0,0,0-1.11-.28c-1.6.06-3.84,1.77-5.89,4.4a20.59,20.59,0,0,0-2.32.21q-.12-.53-.18-1.08c-.18-1.51,0-2.58.6-2.87a.78.78,0,0,1,.3-.08,3.23,3.23,0,0,1,2,.95.48.48,0,0,0,.62-.74,4,4,0,0,0-2.68-1.17,1.75,1.75,0,0,0-.67.18,2.16,2.16,0,0,0-1.06,1.51,6.64,6.64,0,0,0-.07,2.34c0,.36.11.74.19,1.13a11.84,11.84,0,0,0-1.57.44c-2.07.75-2.55,1.74-2.59,2.43s.31,1.66,2.13,2.6a.48.48,0,0,0,.44-.86c-1-.54-1.63-1.15-1.6-1.69,0-.75,1.29-1.54,3.43-2a20.49,20.49,0,0,0,.76,2.21,17.27,17.27,0,0,0-1.62,4.12,6.62,6.62,0,0,0-.18,2.33,2.16,2.16,0,0,0,.89,1.61,1.85,1.85,0,0,0,1,.29,4.74,4.74,0,0,0,2.64-1.08.48.48,0,0,0-.56-.79h0c-1.12.8-2.09,1.09-2.58.77s-.64-1.43-.3-2.91a15.29,15.29,0,0,1,1.18-3.2q.18.38.37.76a19.48,19.48,0,0,0,3.79,5.3,6.62,6.62,0,0,0,1.93,1.32,2.72,2.72,0,0,0,1,.22,1.77,1.77,0,0,0,.82-.19,2.12,2.12,0,0,0,1-1.43,6.24,6.24,0,0,0,.11-2.21,18.62,18.62,0,0,0-1.82-5.88.48.48,0,0,0-.87.42,17.64,17.64,0,0,1,1.73,5.56c.14,1.41-.09,2.41-.62,2.69s-1.56-.16-2.67-1.2a18.5,18.5,0,0,1-3.59-5q-.35-.7-.66-1.41.38-.68.81-1.34t.89-1.28h.24c.42,0,.86,0,1.32,0a18.47,18.47,0,0,1,6,1.24c1.4.6,2.21,1.33,2.18,2s-.68,1.08-1.78,1.51a.48.48,0,0,0,.35.9c1.91-.74,2.36-1.7,2.39-2.36a2.16,2.16,0,0,0-.78-1.67Z"/><path class="cls-6" d="M45.11,119.14a1.06,1.06,0,1,0,1.06-1.06,1.06,1.06,0,0,0-1.06,1.06"/><path class="cls-2" d="M302.27,185.95h27.36v26.61H302.27ZM301,213.8h29.84V184.7H301Zm18.88-17a1.77,1.77,0,0,0-.73-.12c-1.6,0-2.72,1.23-2.72,3.28,0,2.34,1.14,3.28,2.57,3.28a2.23,2.23,0,0,0,.88-.15Zm-.66-2a5.73,5.73,0,0,1,.66,0v-3.31a.12.12,0,0,1,.12-.12h2c.1,0,.12,0,.12.1v11.63a9.38,9.38,0,0,0,.06,1.26c0,.09,0,.1-.11.15a7.6,7.6,0,0,1-3.26.73c-2.75,0-4.71-1.7-4.71-5.17a5,5,0,0,1,5.1-5.28Zm-7.3,10.11c0,.12,0,.16-.16.16h-1.91c-.12,0-.16-.06-.16-.16V191.52c0-.12.06-.16.16-.16h1.93c.1,0,.15,0,.15.15Z"/><path class="cls-2" d="M307.08,105.87h27v26.28h-27Zm-1.23,27.51h29.48V104.64H305.85Zm19.87-16.95c-1,0-1.3.49-1.3.9s.22.75,1.52,1.42c1.93.93,2.53,1.83,2.53,3.14,0,2-1.5,3-3.52,3a5.34,5.34,0,0,1-2.52-.53c-.09,0-.1-.1-.1-.2v-1.81c0-.12.06-.16.15-.1A4.56,4.56,0,0,0,325,123c1,0,1.38-.41,1.38-1s-.28-.84-1.52-1.47c-1.74-.84-2.47-1.68-2.47-3.1,0-1.58,1.24-2.9,3.39-2.9a5.65,5.65,0,0,1,2.2.34.27.27,0,0,1,.12.25v1.68c0,.1-.06.16-.18.12a4.15,4.15,0,0,0-2.14-.55Zm-10.56,1.46c.28,0,.5,0,1,0,1.44,0,2.79-.5,2.79-2.46,0-1.56-1-2.35-2.6-2.35-.49,0-1,0-1.18,0ZM313,111.37c0-.09.17-.15.27-.15.79,0,2-.06,3.17-.06,3.4,0,4.73,1.87,4.73,4.25,0,3.12-2.26,4.46-5,4.46-.47,0-.63,0-1,0v4.72c0,.1,0,.15-.15.15h-1.88c-.1,0-.15,0-.15-.15V111.37Z"/><path class="cls-7" d="M203.05,64.1a26.79,26.79,0,0,1-13.34,6.83l-4.61,8.56L180,71c-2.65-.53-12.22-2.78-18.26-11.48-7.26-10.47-7.05-26.89,3.73-36.76A28.17,28.17,0,0,1,205,24.65C216.26,37.1,212.1,55.26,203.05,64.1Z"/><path class="cls-7" d="M94,80.23a26.79,26.79,0,0,0,14.95-1.14L117.33,84l-.13-9.9c2-1.84,9-8.75,9.56-19.33.72-12.72-8-26.61-22.39-29.39A28.17,28.17,0,0,0,71.74,47.59C68.6,64.12,81.64,77.43,94,80.23Z"/><path class="cls-7" d="M59.86,142.32a26.79,26.79,0,0,0,10.59-10.61L80,129.94l-6.55-7.43c.31-2.68,1.1-12.48-5.34-20.9C60.39,91.49,44.7,86.66,32,93.9A28.17,28.17,0,0,0,21.72,132C30.11,146.61,48.68,148.23,59.86,142.32Z"/><path class="cls-7" d="M76.62,209.59a26.79,26.79,0,0,0,1.87-14.87L85,187.45l-9.73-1.86c-1.4-2.31-6.78-10.54-17-13.24-12.32-3.25-27.68,2.55-33.28,16a28.17,28.17,0,0,0,15.25,36.44C55.75,231.22,71.41,221.11,76.62,209.59Z"/><path class="cls-7" d="M271.58,80.57a26.79,26.79,0,0,1-14.95-1.14l-8.41,4.89.13-9.9c-2-1.84-9-8.75-9.56-19.33-.72-12.72,8-26.61,22.39-29.39a28.17,28.17,0,0,1,32.64,22.23C296.95,64.45,283.91,77.77,271.58,80.57Z"/><path class="cls-7" d="M305.69,142.65A26.79,26.79,0,0,1,295.09,132l-9.57-1.77,6.55-7.43c-.31-2.68-1.1-12.48,5.34-20.9,7.74-10.12,23.43-15,36.13-7.71a28.17,28.17,0,0,1,10.28,38.14C335.44,147,316.87,148.56,305.69,142.65Z"/><path class="cls-7" d="M288.93,209.92A26.79,26.79,0,0,1,287.06,195l-6.48-7.26,9.73-1.86c1.4-2.31,6.78-10.54,17-13.24,12.32-3.25,27.68,2.55,33.28,16a28.17,28.17,0,0,1-15.25,36.44C309.8,231.55,294.14,221.45,288.93,209.92Z"/></g></svg>