<?xml version="1.0" encoding="utf-8"?>
<!-- Generator: Adobe Illustrator 21.1.0, SVG Export Plug-In . SVG Version: 6.00 Build 0)  -->
<svg version="1.1" id="Layer_1" xmlns="http://www.w3.org/2000/svg" xmlns:xlink="http://www.w3.org/1999/xlink" x="0px" y="0px"
	 viewBox="0 0 58.7 72" style="enable-background:new 0 0 58.7 72;" xml:space="preserve">
<style type="text/css">
	.st0{fill:#8BD0F2;}
	.st1{enable-background:new    ;}
	.st2{fill:#7A7A7A;}
</style>
<title>folder</title>
<path class="st0" d="M1.9,7.2h54.8c1,0,1.9,0.9,1.9,1.9v34.2c0,1-0.9,1.9-1.9,1.9H1.9c-1,0-1.9-0.9-1.9-1.9V9.1
	C0,8.1,0.9,7.2,1.9,7.2z"/>
<path class="st0" d="M19.9,19.9H2.3C1,19.9,0,18.8,0,17.5l0,0V2.3C0,1.1,1.1,0,2.3,0h17.6c1.3,0.2,2.4,1.1,3,2.2l3.4,5
	c-3.1,6.9-4,9.4-4.1,10.3c0,0.6-0.3,1.2-0.7,1.7C21.1,19.6,20.5,19.8,19.9,19.9z"/>
<g class="st1">
	<path class="st2" d="M2,66.2v-1.1h2.6V54.7H2.1v-1.1H6v11.5h2.5v1.1H2z"/>
	<path class="st2" d="M17.5,58.3c0.7,0.6,1,1.7,1,3.3v4.6H17v-1.3c-0.5,1-1.5,1.5-3,1.5c-1,0-1.7-0.2-2.3-0.7
		c-0.5-0.4-0.8-1-0.8-1.7c0-0.6,0.2-1.1,0.6-1.6s0.9-0.8,1.6-1.1c0.7-0.2,1.4-0.4,2.2-0.4c0.7,0,1.4,0,2,0.1c-0.1-1-0.3-1.7-0.8-2.1
		c-0.4-0.4-1.1-0.6-1.9-0.6c-0.4,0-0.8,0.1-1.2,0.2s-0.8,0.4-1.1,0.7l-0.7-0.9c0.8-0.8,1.8-1.2,3.1-1.2
		C15.9,57.4,16.9,57.7,17.5,58.3z M16.4,64.6c0.5-0.6,0.8-1.3,0.9-2.4c-0.6-0.1-1.2-0.1-1.8-0.1c-1,0-1.7,0.2-2.3,0.5
		c-0.6,0.3-0.8,0.8-0.8,1.4c0,1,0.6,1.4,1.8,1.4C15.1,65.4,15.9,65.1,16.4,64.6z"/>
	<path class="st2" d="M20.7,57.6h1.4v1.7c0.2-0.6,0.5-1.1,1-1.4c0.5-0.3,1-0.5,1.7-0.5c0.7,0,1.3,0.2,1.8,0.5c0.6,0.3,1,0.8,1.3,1.5
		c0.3,0.7,0.5,1.5,0.5,2.5c0,1-0.2,1.8-0.5,2.5c-0.3,0.7-0.8,1.2-1.4,1.6s-1.2,0.5-1.8,0.5c-0.5,0-1-0.1-1.5-0.4s-0.8-0.6-1.1-1v4.3
		h-1.4V57.6z M26.2,64.5c0.5-0.5,0.7-1.4,0.7-2.6c0-1.1-0.2-1.9-0.6-2.5s-1-0.9-1.8-0.9c-0.7,0-1.3,0.3-1.8,0.9
		c-0.4,0.6-0.7,1.5-0.7,2.7c0,1,0.2,1.8,0.7,2.3s1,0.8,1.7,0.8C25.1,65.3,25.7,65,26.2,64.5z"/>
	<path class="st2" d="M37.5,65.4c-0.8,0.6-1.8,0.9-2.8,0.9c-1,0-1.6-0.3-2-0.9c-0.4-0.6-0.6-1.5-0.6-2.8c0-0.2,0-0.6,0-1.1l0.2-2.8
		h-1.9v-1.1h2l0.1-2.3L34,55l0.2,0l0,0.1c-0.1,0.1-0.2,0.2-0.2,0.3c0,0.1-0.1,0.2-0.1,0.4l-0.2,1.7h2.9v1.1h-3l-0.2,2.9
		c0,0.5,0,0.8,0,1c0,1,0.1,1.7,0.4,2.1c0.2,0.4,0.6,0.5,1.1,0.5c0.4,0,0.7-0.1,1-0.2s0.7-0.4,1.1-0.7L37.5,65.4z"/>
	<path class="st2" d="M41.2,65.8c-0.6-0.4-1.1-0.9-1.4-1.6c-0.3-0.7-0.5-1.5-0.5-2.3s0.2-1.7,0.5-2.3c0.3-0.7,0.8-1.2,1.4-1.6
		c0.6-0.4,1.3-0.6,2.1-0.6c0.8,0,1.5,0.2,2.1,0.6c0.6,0.4,1.1,0.9,1.4,1.6c0.3,0.7,0.5,1.5,0.5,2.3s-0.2,1.7-0.5,2.3
		c-0.3,0.7-0.8,1.2-1.4,1.6c-0.6,0.4-1.3,0.6-2.1,0.6C42.5,66.4,41.8,66.2,41.2,65.8z M44.6,64.8c0.4-0.3,0.7-0.7,0.9-1.2
		c0.2-0.5,0.3-1.1,0.3-1.7c0-1-0.2-1.8-0.7-2.4c-0.5-0.6-1.1-0.9-1.8-0.9c-0.7,0-1.4,0.3-1.8,0.9c-0.5,0.6-0.7,1.4-0.7,2.4
		c0,0.6,0.1,1.2,0.3,1.7c0.2,0.5,0.5,0.9,0.9,1.2c0.4,0.3,0.8,0.4,1.3,0.4S44.2,65.1,44.6,64.8z"/>
	<path class="st2" d="M49.2,57.6h1.4v1.7c0.2-0.6,0.5-1.1,1-1.4c0.5-0.3,1-0.5,1.7-0.5c0.7,0,1.3,0.2,1.8,0.5c0.6,0.3,1,0.8,1.3,1.5
		c0.3,0.7,0.5,1.5,0.5,2.5c0,1-0.2,1.8-0.5,2.5c-0.3,0.7-0.8,1.2-1.4,1.6s-1.2,0.5-1.8,0.5c-0.5,0-1-0.1-1.5-0.4s-0.8-0.6-1.1-1v4.3
		h-1.4V57.6z M54.7,64.5c0.5-0.5,0.7-1.4,0.7-2.6c0-1.1-0.2-1.9-0.6-2.5s-1-0.9-1.8-0.9c-0.7,0-1.3,0.3-1.8,0.9
		c-0.4,0.6-0.7,1.5-0.7,2.7c0,1,0.2,1.8,0.7,2.3s1,0.8,1.7,0.8C53.6,65.3,54.2,65,54.7,64.5z"/>
</g>
<text transform="matrix(1 0 0 1 13.15 105.5776)" class="st2" style="font-family:'Inconsolata-Regular'; font-size:19px;">laptop</text>
</svg>
