<?xml version="1.0" encoding="utf-8"?>
<!-- Generator: Adobe Illustrator 21.1.0, SVG Export Plug-In . SVG Version: 6.00 Build 0)  -->
<svg version="1.1" id="Layer_1" xmlns="http://www.w3.org/2000/svg" xmlns:xlink="http://www.w3.org/1999/xlink" x="0px" y="0px"
	 viewBox="0 0 58.7 72" style="enable-background:new 0 0 58.7 72;" xml:space="preserve">
<style type="text/css">
	.st0{fill:#8BD0F2;}
	.st1{enable-background:new    ;}
	.st2{fill:#7A7A7A;}
</style>
<title>folder</title>
<path class="st0" d="M1.9,7.2h54.8c1,0,1.9,0.9,1.9,1.9v34.2c0,1-0.9,1.9-1.9,1.9H1.9c-1,0-1.9-0.9-1.9-1.9V9.1
	C0,8.1,0.9,7.2,1.9,7.2z"/>
<path class="st0" d="M19.9,19.9H2.3C1,19.9,0,18.8,0,17.5l0,0V2.3C0,1.1,1.1,0,2.3,0h17.6c1.3,0.2,2.4,1.1,3,2.2l3.4,5
	c-3.1,6.9-4,9.4-4.1,10.3c0,0.6-0.3,1.2-0.7,1.7C21.1,19.6,20.5,19.8,19.9,19.9z"/>
<g class="st1">
	<path class="st2" d="M16.3,57.6h1.4v1.7c0.2-0.6,0.5-1.1,1-1.4c0.5-0.3,1-0.5,1.7-0.5c0.7,0,1.3,0.2,1.8,0.5c0.6,0.3,1,0.8,1.3,1.5
		c0.3,0.7,0.5,1.5,0.5,2.5c0,1-0.2,1.8-0.5,2.5c-0.3,0.7-0.8,1.2-1.4,1.6s-1.2,0.5-1.8,0.5c-0.5,0-1-0.1-1.5-0.4s-0.8-0.6-1.1-1v4.3
		h-1.4V57.6z M21.8,64.5c0.5-0.5,0.7-1.4,0.7-2.6c0-1.1-0.2-1.9-0.6-2.5s-1-0.9-1.8-0.9c-0.7,0-1.3,0.3-1.8,0.9
		c-0.4,0.6-0.7,1.5-0.7,2.7c0,1,0.2,1.8,0.7,2.3s1,0.8,1.7,0.8C20.7,65.3,21.3,65,21.8,64.5z"/>
	<path class="st2" d="M26.7,65.3c-0.8-0.8-1.1-1.9-1.1-3.3c0-0.9,0.2-1.8,0.5-2.5s0.8-1.2,1.4-1.6s1.3-0.5,2-0.5
		c1.1,0,1.9,0.3,2.6,1c0.7,0.7,1,1.7,1,3.1c0,0.1,0,0.3,0,0.6h-6.2c0.1,1.1,0.3,1.9,0.9,2.4c0.5,0.5,1.2,0.8,2.1,0.8
		c0.9,0,1.7-0.3,2.2-1l0.8,0.7c-0.7,0.9-1.7,1.3-3,1.3S27.5,66,26.7,65.3z M31.7,61c0-0.8-0.2-1.5-0.6-1.9c-0.4-0.5-1-0.7-1.6-0.7
		c-0.6,0-1.2,0.2-1.7,0.7s-0.8,1.1-0.9,2H31.7z"/>
	<path class="st2" d="M35.5,57.6h1.3v1.5c0.3-0.5,0.8-1,1.3-1.3s1.1-0.5,1.7-0.5c0.8,0,1.4,0.3,1.9,0.9c0.5,0.6,0.7,1.5,0.7,2.7v5.3
		H41V61c0-0.9-0.1-1.5-0.4-1.9c-0.3-0.4-0.7-0.6-1.2-0.6c-0.4,0-0.8,0.1-1.2,0.3c-0.4,0.2-0.7,0.5-1,1c-0.3,0.4-0.4,0.9-0.4,1.4v5
		h-1.3V57.6z"/>
</g>
</svg>
