<svg xmlns="http://www.w3.org/2000/svg" viewBox="0 0 406.77 261.26"><defs><style>.cls-1{fill:#f4b3c7;}.cls-2{fill:#f2f2f2;}.cls-3{fill:#707070;}.cls-11,.cls-12,.cls-14,.cls-16,.cls-17,.cls-18,.cls-19,.cls-20,.cls-21,.cls-22,.cls-23,.cls-4,.cls-5,.cls-7,.cls-8,.cls-9{fill:none;stroke-miterlimit:10;}.cls-12,.cls-14,.cls-17,.cls-18,.cls-19,.cls-20,.cls-21,.cls-4,.cls-7,.cls-8,.cls-9{stroke:#f4b3c7;}.cls-4{stroke-width:1.97px;}.cls-11,.cls-16,.cls-22,.cls-5{stroke:#a8a8a8;}.cls-20,.cls-5{stroke-width:4.16px;}.cls-6{fill:#ffd2e4;}.cls-7{stroke-width:0.72px;}.cls-8{stroke-width:0.68px;}.cls-9{stroke-width:0.72px;}.cls-10{fill:#c18b9f;}.cls-11,.cls-23{stroke-width:2.08px;}.cls-12{stroke-width:1.81px;}.cls-13{fill:#fff;}.cls-14{stroke-width:1.83px;}.cls-15{fill:#a8a8a8;}.cls-16,.cls-21{stroke-width:2.06px;}.cls-17{stroke-width:0.45px;}.cls-18{stroke-width:0.51px;}.cls-19{stroke-width:1.03px;}.cls-22{stroke-width:3.09px;}.cls-23{stroke:#e0e0e0;}</style></defs><title>phone</title><g id="Layer_2" data-name="Layer 2"><rect class="cls-1" x="30.98" y="25.45" width="123.12" height="214.24" rx="9.03" ry="9.03"/><rect class="cls-2" x="36.79" y="42.49" width="111.49" height="182.17" rx="2.59" ry="2.59"/><circle class="cls-3" cx="50.85" cy="33.76" r="3.07"/><rect class="cls-2" x="89.16" y="30.65" width="25.9" height="5.82" rx="2.91" ry="2.91"/><circle class="cls-3" cx="77.72" cy="33.76" r="2.09"/><circle class="cls-3" cx="84.4" cy="33.76" r="2.09"/><rect class="cls-3" x="81.88" y="228.88" width="21.32" height="6.72" rx="3.36" ry="3.36"/><rect class="cls-1" x="27.54" y="57.61" width="3.43" height="12.51" rx="1.72" ry="1.72"/><rect class="cls-1" x="27.54" y="75.79" width="3.43" height="12.51" rx="1.72" ry="1.72"/><path class="cls-4" d="M278.78,124.16H187.31a4,4,0,0,1-3.14-1.46,8.21,8.21,0,0,1-1.72-5.15l-.11-35.85L168.45,71.12l13.89-12.84.11-28.8a8.53,8.53,0,0,1,1.43-4.67A4.78,4.78,0,0,1,186.2,23a3.62,3.62,0,0,1,1.11-.18h91.46c2.67,0,4.86,3,4.86,6.61v88.06C283.64,121.18,281.45,124.16,278.78,124.16Z"/><circle class="cls-1" cx="198.65" cy="35.99" r="7.01"/><line class="cls-5" x1="213.29" y1="32.91" x2="257.59" y2="33.16"/><rect class="cls-6" x="192.51" y="49.19" width="83.21" height="51.07"/><path class="cls-7" d="M197.56,116.59c.34-.29,4.5-3.9,4.05-6.21a2,2,0,0,0-.76-1.36,2.07,2.07,0,0,0-1.72-.1,2.86,2.86,0,0,0-1.62,1.41,2.89,2.89,0,0,0-1.67-1.51,2,2,0,0,0-1.44,0,2.24,2.24,0,0,0-1,1.51C192.93,111.9,194.67,114.33,197.56,116.59Z"/><path class="cls-8" d="M213,112.46a3.91,3.91,0,0,1-.89,2.4l.54,1.39-1.31-.61a3.51,3.51,0,0,1-2.1.66,4,4,0,0,1-3.76-3.83,3.79,3.79,0,0,1,3.76-3.83A4,4,0,0,1,213,112.46Z"/><path class="cls-7" d="M221.17,116.5l-1.33-3.58-3.07-1.84,7.85-2.35Z"/><path class="cls-9" d="M275.72,116.09l-3.08-2.19-3.11,2.19v-7.46h6.19Z"/><circle class="cls-10" cx="202.97" cy="90.9" r="5.65"/><ellipse class="cls-2" cx="202.97" cy="89.23" rx="1.79" ry="1.98"/><path class="cls-2" d="M206.34,93.86h-6.73a3.65,3.65,0,0,1,1.18-1.55,3.77,3.77,0,0,1,4.29-.12A3.58,3.58,0,0,1,206.34,93.86Z"/><line class="cls-7" x1="219.83" y1="112.91" x2="224.61" y2="108.72"/><line class="cls-11" x1="213.29" y1="39.91" x2="257.59" y2="40.16"/><circle class="cls-1" cx="196.3" cy="217.05" r="3.01"/><path class="cls-12" d="M279,244H187.58a4.42,4.42,0,0,1-3.14-1.23,6.21,6.21,0,0,1-1.72-4.35l-.11-30.29-13.89-8.93,13.89-10.85.11-24.33a6.4,6.4,0,0,1,1.43-3.94,4.85,4.85,0,0,1,2.32-1.49,4.24,4.24,0,0,1,1.11-.15H279c2.67,0,4.86,2.51,4.86,5.59v74.4C283.9,241.45,281.72,244,279,244Z"/><circle class="cls-1" cx="198.92" cy="171.52" r="7.01"/><line class="cls-5" x1="213.55" y1="168.44" x2="248.45" y2="168.63"/><path class="cls-13" d="M196.33,218.81c.2-.15,1.62-1.28,1.44-2.17a.71.71,0,0,0-.32-.53.72.72,0,0,0-.61.11,1.21,1.21,0,0,0-.51.61,1.25,1.25,0,0,0-.54-.64.72.72,0,0,0-.59-.11.75.75,0,0,0-.37.54C194.61,217.52,196.18,218.69,196.33,218.81Z"/><line class="cls-11" x1="213.55" y1="175.44" x2="257.85" y2="175.69"/><path class="cls-14" d="M384.39,192.18h-75a3,3,0,0,1-2.58-1.53,10.44,10.44,0,0,1-1.41-5.42l-.09-37.74-11.39-11.12,11.39-13.52.09-30.31a10.94,10.94,0,0,1,1.17-4.92,4.11,4.11,0,0,1,1.91-1.86,2.38,2.38,0,0,1,.91-.18h75c2.19,0,4,3.13,4,7v92.69C388.38,189,386.59,192.18,384.39,192.18Z"/><line class="cls-5" x1="338.71" y1="95.61" x2="359.48" y2="95.61"/><circle class="cls-1" cx="322.75" cy="125.35" r="5.65"/><line class="cls-11" x1="338.71" y1="102.62" x2="367.87" y2="102.62"/><line class="cls-11" x1="193.29" y1="186.78" x2="274.01" y2="186.78"/><line class="cls-11" x1="193.29" y1="192.18" x2="267.74" y2="192.18"/><line class="cls-11" x1="193.29" y1="197.56" x2="269.53" y2="197.56"/><line class="cls-11" x1="193.29" y1="202.94" x2="271.68" y2="202.94"/><line class="cls-11" x1="193.29" y1="208.41" x2="226.31" y2="208.41"/><line class="cls-11" x1="202.05" y1="217.43" x2="214.61" y2="217.43"/><line class="cls-11" x1="265.6" y1="217.43" x2="274.01" y2="217.43"/><circle class="cls-15" cx="263.19" cy="217.43" r="0.67"/><line class="cls-11" x1="249.94" y1="217.43" x2="260.98" y2="217.43"/><line class="cls-16" x1="265.6" y1="232.86" x2="274.38" y2="232.86"/><path class="cls-1" d="M203.14,233.15a1.15,1.15,0,0,0,.27-.77,1.18,1.18,0,0,0-.25-.67,1,1,0,0,0-.25-1.19,2.14,2.14,0,0,0-1.55-.37,6.07,6.07,0,0,0-1,.12h0l-.3.06a3.37,3.37,0,0,1,.24-1.12,2.07,2.07,0,0,0-.05-1.88,1.23,1.23,0,0,0-1-.48.49.49,0,0,0-.37.17,1.3,1.3,0,0,0-.16.92,8.56,8.56,0,0,1-1.58,2.83l0,0a2.08,2.08,0,0,0-.38.57.8.8,0,0,0-.38-.1h-1.18a.81.81,0,0,0-.8.8v3.14a.81.81,0,0,0,.8.8h1.18a.8.8,0,0,0,.46-.15l.45.05a19.48,19.48,0,0,0,2.58.14l.65,0a4.34,4.34,0,0,0,.9-.08,1.68,1.68,0,0,0,1.2-.75,1.18,1.18,0,0,0,.13-.74,1.23,1.23,0,0,0,.44-1A1.31,1.31,0,0,0,203.14,233.15Zm-7.92,2.36a.28.28,0,0,1-.28-.28v-3.15a.28.28,0,0,1,.28-.28h1.18a.28.28,0,0,1,.28.28v3.14a.28.28,0,0,1-.28.28h-1.18Zm7.42-2.59a.26.26,0,0,0,0,.32.8.8,0,0,1,.09.32.77.77,0,0,1-.36.67.26.26,0,0,0-.09.3.68.68,0,0,1-.05.5,1.21,1.21,0,0,1-.86.49,5.1,5.1,0,0,1-1.41,0h0a19.09,19.09,0,0,1-2.51-.14h0l-.2,0a.82.82,0,0,0,0-.17v-3.15a.82.82,0,0,0,0-.24,1.62,1.62,0,0,1,.36-.66,9.49,9.49,0,0,0,1.75-3.11.24.24,0,0,0,0-.13,1.21,1.21,0,0,1,0-.56.69.69,0,0,1,.55.26,1.65,1.65,0,0,1,0,1.41c-.32,1-.35,1.5-.09,1.73a.42.42,0,0,0,.42.08l.34-.07h0c.59-.13,1.66-.21,2,.13a.56.56,0,0,1,.07.71.26.26,0,0,0,0,.34.73.73,0,0,1,.21.45A.72.72,0,0,1,202.65,232.93Z"/><path class="cls-17" d="M259.08,230.19v-1.83l3.44,3.37-3.37,3.37v-2a5.15,5.15,0,0,0-2.2.5,5.21,5.21,0,0,0-2.2,2,4.32,4.32,0,0,1,4.33-5.45Z"/><path class="cls-18" d="M232.24,235.22l-4.08.1L226,237v-1.76a1.81,1.81,0,0,1-1.8-1.8v-3.33a1.81,1.81,0,0,1,1.8-1.8h6.21a1.81,1.81,0,0,1,1.8,1.8v3.33a1.75,1.75,0,0,1-1.8,1.8Z"/><line class="cls-16" x1="237.44" y1="232.86" x2="246.22" y2="232.86"/><line class="cls-16" x1="206.44" y1="233.03" x2="215.22" y2="233.03"/><rect class="cls-19" x="318.66" y="93.27" width="13.39" height="10.34" rx="2.12" ry="2.12"/><rect class="cls-13" x="326.18" y="91.62" width="7.64" height="6.23"/><line class="cls-19" x1="330.52" y1="91.5" x2="330.52" y2="96.47"/><line class="cls-19" x1="327.87" y1="93.88" x2="333.17" y2="93.88"/><line class="cls-20" x1="318.01" y1="113.54" x2="347.64" y2="113.54"/><circle class="cls-1" cx="322.75" cy="141.22" r="5.65"/><circle class="cls-1" cx="322.75" cy="157.22" r="5.65"/><circle class="cls-21" cx="348.16" cy="177.15" r="7.62"/><path class="cls-1" d="M326.44,183l3.06.1,1.61,1.66V183a1.21,1.21,0,0,0,1-.53,2.24,2.24,0,0,0,.4-1.27v-3.33c0-1-.61-1.8-1.35-1.8h-4.66c-.74,0-1.35.81-1.35,1.8v3.33a2.19,2.19,0,0,0,.41,1.32A1.16,1.16,0,0,0,326.44,183Z"/><circle class="cls-1" cx="363.72" cy="182.24" r="1.79"/><circle class="cls-1" cx="367.99" cy="182.24" r="1.79"/><circle class="cls-1" cx="365.88" cy="178.61" r="1.79"/><line class="cls-22" x1="333.06" y1="123.61" x2="353.83" y2="123.61"/><line class="cls-23" x1="333.06" y1="128.38" x2="362.23" y2="128.38"/><line class="cls-22" x1="332.83" y1="138.83" x2="361.99" y2="138.83"/><line class="cls-23" x1="332.83" y1="143.61" x2="356.64" y2="143.61"/><line class="cls-22" x1="332.83" y1="154.84" x2="365.21" y2="154.84"/><line class="cls-23" x1="332.83" y1="159.61" x2="347.41" y2="159.61"/></g></svg>