<svg xmlns="http://www.w3.org/2000/svg" xmlns:xlink="http://www.w3.org/1999/xlink" viewBox="0 0 900 200"><defs><style>.cls-1{fill:none;}.cls-2{clip-path:url(#clip-path);}.cls-3{fill:#bfbfef;}.cls-4{fill:#9797ce;}.cls-5,.cls-9{fill:#f2a5d3;}.cls-6{fill:#7474c4;}.cls-7{clip-path:url(#clip-path-2);}.cls-8{clip-path:url(#clip-path-3);}.cls-9{opacity:0.5;}.cls-10{fill:#fff;}</style><clipPath id="clip-path"><circle class="cls-1" cx="155.65" cy="68.06" r="45.81"/></clipPath><clipPath id="clip-path-2"><circle class="cls-1" cx="574.1" cy="106.77" r="49.89" transform="translate(0.4 215.67) rotate(-21.28)"/></clipPath><clipPath id="clip-path-3"><circle class="cls-1" cx="726.09" cy="77.79" r="49.18" transform="translate(541.59 784.35) rotate(-81.48)"/></clipPath></defs><title>planet</title><g id="Layer_1" data-name="Layer 1"><g class="cls-2"><circle class="cls-3" cx="155.65" cy="68.06" r="45.81"/><rect class="cls-4" x="155.65" y="36.97" width="22.26" height="4.99" rx="2.5" ry="2.5"/><rect class="cls-4" x="119.6" y="50.68" width="22.26" height="4.99" rx="2.5" ry="2.5"/><rect class="cls-4" x="127.24" y="59.45" width="22.26" height="4.99" rx="2.5" ry="2.5"/><rect class="cls-4" x="161.51" y="86.38" width="44.68" height="4.99" rx="2.5" ry="2.5"/><rect class="cls-4" x="107.08" y="83.08" width="22.26" height="4.99" rx="2.5" ry="2.5"/><rect class="cls-4" x="123.88" y="92.95" width="15.2" height="4.99" rx="2.06" ry="2.06"/><rect class="cls-4" x="166.78" y="69.25" width="22.26" height="4.99" rx="2.5" ry="2.5"/><rect class="cls-4" x="166.78" y="45.69" width="22.26" height="4.99" rx="2.5" ry="2.5"/><rect class="cls-4" x="112.43" y="27.96" width="40.55" height="4.99" rx="2.5" ry="2.5"/></g><circle class="cls-5" cx="361.87" cy="120.04" r="59.86" transform="translate(-15.13 176.87) rotate(-26.92)"/><path class="cls-6" d="M369.2,134.47c-46.4,23.56-88,34.82-92.92,25.13S305,123,351.38,99.39s88-34.82,92.92-25.13S415.6,110.9,369.2,134.47Zm56.47-50.74C422.75,78,391.12,88.22,355,106.55s-63,37.85-60.1,43.58,34.54-4.49,70.64-22.82S428.57,89.46,425.66,83.73Z"/><path class="cls-6" d="M373.67,143.27c-54.44,27.65-104.48,38.41-111.78,24s30.91-48.44,85.35-76.08S451.72,52.81,459,67.18,428.1,115.62,373.67,143.27Zm74.8-70.73C443.25,62.27,399.62,74,351,98.65s-83.79,53-78.58,63.29,48.85-1.42,97.46-26.11S453.68,82.81,448.47,72.54Z"/><path class="cls-5" d="M308.49,147.14A59.86,59.86,0,0,1,415.24,92.93Z"/><g class="cls-7"><circle class="cls-6" cx="574.1" cy="106.77" r="49.89" transform="translate(0.4 215.67) rotate(-21.28)"/><path class="cls-3" d="M625.83,73.9c-23.18,13.18-40.69,18.21-52.88,20.24-17.39,2.91-29.17.61-46.62,7.7a82.74,82.74,0,0,0-20.87,12.36l-4.83-12.4c30.7-15.23,53-21.41,67.91-24.2,6.67-1.24,16.28-2.63,28.81-7.5A128,128,0,0,0,630,51.41Z"/><path class="cls-3" d="M636.13,105.45c-22.54,15-40.42,19.27-52.88,20.24-19.1,1.49-32.43-4.16-48.58,3.55a48.89,48.89,0,0,0-18.92,16.51l-4.83-12.4a70.26,70.26,0,0,1,24-15.55c16.53-6.25,24-1.34,48.64-6.81a136.37,136.37,0,0,0,31.13-10.78A119,119,0,0,0,640.28,83Z"/><path class="cls-3" d="M638,125.84c-22.54,15-40.42,19.27-52.88,20.24-19.1,1.49-32.43-4.16-48.58,3.55a48.89,48.89,0,0,0-18.92,16.51l-4.83-12.4c9.9-13.7,19.69-18.91,26.56-21.18,17.16-5.67,24.74,4.12,52,.06,7.35-1.09,19.92-3.11,32.6-11.35a63.4,63.4,0,0,0,18.21-17.92Z"/></g><g class="cls-8"><circle class="cls-6" cx="726.09" cy="77.79" r="49.18" transform="translate(541.59 784.35) rotate(-81.48)"/><path class="cls-9" d="M725.07,64.79c-.53,3.58-16.18,4.17-34.95,1.33s-33.56-8-33-11.62,16.18-4.17,34.95-1.33S725.6,61.21,725.07,64.79Z"/><path class="cls-9" d="M701.17,100.63c-.53,3.58-16.18,4.17-34.95,1.33s-33.56-8-33-11.62,16.18-4.17,34.95-1.33S701.7,97.05,701.17,100.63Z"/><path class="cls-9" d="M732.43,88.21c-.38,2.54-15.9,2.31-34.68-.53s-33.69-7.19-33.31-9.73,15.9-2.31,34.68.53S732.8,85.67,732.43,88.21Z"/><path class="cls-9" d="M805,58.8c-.38,2.54-15.9,2.31-34.68-.53S736.66,51.08,737,48.54s15.9-2.31,34.68.53S805.4,56.26,805,58.8Z"/><path class="cls-9" d="M794.92,112.8c-.29,1.88-15.75,1.21-34.53-1.51s-33.76-6.43-33.47-8.31,15.75-1.21,34.53,1.51S795.21,110.92,794.92,112.8Z"/></g><polygon class="cls-10" points="207.34 127.26 207.68 131.66 211.5 133.87 207.42 135.55 206.49 139.87 203.63 136.51 199.24 136.96 201.55 133.2 199.76 129.17 204.05 130.21 207.34 127.26"/><polygon class="cls-10" points="231.77 141.64 233.76 145.58 238.14 146.17 235.01 149.28 235.8 153.62 231.88 151.61 227.99 153.71 228.69 149.35 225.5 146.3 229.86 145.62 231.77 141.64"/><polygon class="cls-10" points="226.38 116.4 230.14 118.72 234.18 116.94 233.13 121.22 236.07 124.52 231.67 124.85 229.45 128.66 227.77 124.58 223.46 123.64 226.83 120.79 226.38 116.4"/><polygon class="cls-10" points="201.41 151.69 204.24 155.08 208.63 154.68 206.27 158.41 208.01 162.47 203.74 161.38 200.42 164.29 200.13 159.88 196.34 157.63 200.44 155.99 201.41 151.69"/><circle class="cls-10" cx="242.87" cy="135.78" r="2.22"/><circle class="cls-10" cx="219.62" cy="136.5" r="2.22"/><circle class="cls-10" cx="218.06" cy="157.99" r="2.22"/><circle class="cls-10" cx="229.6" cy="167.36" r="2.22"/><polygon class="cls-10" points="696.58 138.6 696.24 143 692.42 145.21 696.5 146.89 697.42 151.21 700.28 147.85 704.67 148.3 702.36 144.54 704.15 140.51 699.86 141.54 696.58 138.6"/><polygon class="cls-10" points="672.15 152.98 670.15 156.92 665.78 157.51 668.9 160.62 668.11 164.96 672.04 162.95 675.92 165.04 675.22 160.69 678.42 157.64 674.06 156.96 672.15 152.98"/><polygon class="cls-10" points="677.53 127.73 673.77 130.05 669.74 128.28 670.78 132.56 667.84 135.85 672.24 136.18 674.47 140 676.14 135.91 680.45 134.98 677.09 132.12 677.53 127.73"/><circle class="cls-10" cx="661.04" cy="147.12" r="2.22"/><circle class="cls-10" cx="684.29" cy="147.84" r="2.22"/><circle class="cls-10" cx="685.85" cy="169.33" r="2.22"/><polygon class="cls-10" points="502.25 46.73 499.37 50.08 500.5 54.34 496.43 52.64 492.72 55.03 493.08 50.63 489.66 47.84 493.95 46.83 495.55 42.71 497.84 46.48 502.25 46.73"/><polygon class="cls-10" points="523.53 32.11 522.82 36.47 526 39.52 521.64 40.19 519.72 44.16 517.74 40.23 513.36 39.63 516.5 36.52 515.72 32.18 519.64 34.2 523.53 32.11"/><polygon class="cls-10" points="481.37 22.51 479.31 26.41 481.36 30.32 477.01 29.57 473.93 32.73 473.3 28.36 469.35 26.4 473.31 24.45 473.95 20.09 477.02 23.25 481.37 22.51"/><circle class="cls-10" cx="511.9" cy="54.75" r="2.22" transform="translate(17.88 199.62) rotate(-22.45)"/><circle class="cls-10" cx="502.36" cy="33.54" r="2.22" transform="translate(25.26 194.37) rotate(-22.45)"/><circle class="cls-10" cx="481.91" cy="40.3" r="2.22" transform="translate(21.13 187.07) rotate(-22.45)"/><circle class="cls-10" cx="477.65" cy="54.54" r="2.22" transform="translate(15.37 186.52) rotate(-22.45)"/><circle class="cls-10" cx="444.91" cy="149.77" r="2.22" transform="translate(-23.48 181.24) rotate(-22.45)"/><circle class="cls-10" cx="435.71" cy="160.18" r="2.22" transform="translate(-28.15 178.51) rotate(-22.45)"/><circle class="cls-10" cx="448.71" cy="161.34" r="2.22" transform="translate(-27.61 183.57) rotate(-22.45)"/><circle class="cls-10" cx="222.41" cy="58.74" r="2.22" transform="translate(51.79 213.02) rotate(-56.91)"/><circle class="cls-10" cx="220.72" cy="72.53" r="2.22" transform="translate(39.46 217.86) rotate(-56.91)"/><circle class="cls-10" cx="232.09" cy="66.12" r="2.22" transform="matrix(0.55, -0.84, 0.84, 0.55, 49.99, 224.49)"/><circle class="cls-10" cx="624.84" cy="45.7" r="2.22" transform="translate(254.22 550.83) rotate(-57.91)"/><circle class="cls-10" cx="623.39" cy="59.52" r="2.22" transform="matrix(0.53, -0.85, 0.85, 0.53, 241.82, 556.07)"/><circle class="cls-10" cx="634.65" cy="52.92" r="2.22" transform="translate(252.7 562.52) rotate(-57.91)"/><polygon class="cls-10" points="759.33 140.75 758.99 145.15 755.17 147.36 759.25 149.04 760.17 153.36 763.03 150 767.42 150.46 765.11 146.69 766.9 142.66 762.61 143.69 759.33 140.75"/><polygon class="cls-10" points="99.92 114.49 99.58 118.89 95.76 121.1 99.84 122.78 100.76 127.1 103.63 123.74 108.01 124.19 105.7 120.44 107.49 116.4 103.2 117.44 99.92 114.49"/><polygon class="cls-10" points="467.57 114.04 467.23 118.44 463.41 120.66 467.49 122.34 468.42 126.66 471.28 123.3 475.67 123.75 473.36 119.99 475.15 115.96 470.86 116.99 467.57 114.04"/><polygon class="cls-10" points="796.15 63.57 795.8 67.97 791.99 70.18 796.07 71.87 796.99 76.18 799.85 72.82 804.24 73.28 801.93 69.52 803.72 65.48 799.43 66.52 796.15 63.57"/></g></svg>